HIERARCHY
ROOT root
{
	OFFSET 0.000000 0.000000 0.000000
	CHANNELS 6 Xposition Yposition Zposition Zrotation Yrotation Xrotation
	JOINT lhip
	{
		OFFSET 0.058581 -0.082280 -0.017664
		CHANNELS 3 Zrotation Yrotation Xrotation
		JOINT lknee
		{
			OFFSET 0.043451 -0.386469 0.008037
			CHANNELS 3 Zrotation Yrotation Xrotation
			JOINT lankle
			{
				OFFSET -0.014790 -0.426874 -0.037428
				CHANNELS 3 Zrotation Yrotation Xrotation
				JOINT ltoe
				{
					OFFSET 0.041054 -0.060286 0.122042
					CHANNELS 3 Zrotation Yrotation Xrotation
					End Site
					{
						OFFSET 0.000000 0.000000 0.000000
					}
				}
			}
		}
	}
	JOINT rhip
	{
		OFFSET -0.060310 -0.090513 -0.013543
		CHANNELS 3 Zrotation Yrotation Xrotation
		JOINT rknee
		{
			OFFSET -0.043257 -0.383688 -0.004843
			CHANNELS 3 Zrotation Yrotation Xrotation
			JOINT rankle
			{
				OFFSET 0.019056 -0.420046 -0.034562
				CHANNELS 3 Zrotation Yrotation Xrotation
				JOINT rtoe
				{
					OFFSET -0.034840 -0.062106 0.130323
					CHANNELS 3 Zrotation Yrotation Xrotation
					End Site
					{
						OFFSET 0.000000 0.000000 0.000000
					}
				}
			}
		}
	}
	JOINT lowerback
	{
		OFFSET 0.004439 0.124404 -0.038385
		CHANNELS 3 Zrotation Yrotation Xrotation
		JOINT upperback
		{
			OFFSET 0.004488 0.137956 0.026820
			CHANNELS 3 Zrotation Yrotation Xrotation
			JOINT chest
			{
				OFFSET -0.002265 0.056032 0.002855
				CHANNELS 3 Zrotation Yrotation Xrotation
				JOINT lowerneck
				{
					OFFSET -0.013390 0.211636 -0.033468
					CHANNELS 3 Zrotation Yrotation Xrotation
					JOINT upperneck
					{
						OFFSET 0.010113 0.088937 0.050410
						CHANNELS 3 Zrotation Yrotation Xrotation
						End Site
						{
							OFFSET 0.000000 0.000000 0.000000
						}
					}
				}
				JOINT lclavicle
				{
					OFFSET 0.071702 0.114000 -0.018898
					CHANNELS 3 Zrotation Yrotation Xrotation
					JOINT lshoulder
					{
						OFFSET 0.122921 0.045205 -0.019046
						CHANNELS 3 Zrotation Yrotation Xrotation
						JOINT lelbow
						{
							OFFSET 0.255332 -0.015649 -0.022946
							CHANNELS 3 Zrotation Yrotation Xrotation
							JOINT lwrist
							{
								OFFSET 0.265709 0.012698 -0.007375
								CHANNELS 3 Zrotation Yrotation Xrotation
								End Site
								{
									OFFSET 0.000000 0.000000 0.000000
								}
							}
						}
					}
				}
				JOINT rclavicle
				{
					OFFSET -0.082954 0.112472 -0.023707
					CHANNELS 3 Zrotation Yrotation Xrotation
					JOINT rshoulder
					{
						OFFSET -0.113228 0.046853 -0.008472
						CHANNELS 3 Zrotation Yrotation Xrotation
						JOINT relbow
						{
							OFFSET -0.260127 -0.014369 -0.031269
							CHANNELS 3 Zrotation Yrotation Xrotation
							JOINT rwrist
							{
								OFFSET -0.269108 0.006794 -0.006027
								CHANNELS 3 Zrotation Yrotation Xrotation
								End Site
								{
									OFFSET 0.000000 0.000000 0.000000
								}
							}
						}
					}
				}
			}
		}
	}
}
MOTION
Frames: 5
Frame Time: 0.033333
1.111870 0.722024 0.705173 83.983946 -0.275594 91.106026 13.208667 5.002136 -80.400832 -3.328280 17.625429 81.034204 7.941524 7.810882 -4.819873 0.000000 -0.000000 0.000000 -10.465701 -6.050263 -88.154001 -1.724899 -13.850630 89.131197 7.824974 -6.936396 14.351766 0.000000 -0.000000 0.000000 -0.018702 -0.927665 31.433714 -3.040613 1.757215 -18.406602 -0.366105 0.618865 -2.969254 -11.373901 -0.570272 26.675439 8.180351 11.273571 -11.283560 -5.944080 3.905041 11.875336 -34.235042 13.966935 16.702882 -81.186371 -63.894493 98.746989 60.779337 -7.640525 -19.289142 0.822129 0.558827 18.000418 39.063535 -8.335609 13.515453 88.196878 64.230838 108.837092 -57.871367 13.316871 -18.516658 
1.112195 0.722369 0.711777 84.169704 -0.200262 91.579220 13.244317 4.801696 -80.280635 -3.678252 17.541048 80.069130 7.642708 8.080410 -4.435765 0.000000 -0.000000 0.000000 -10.435846 -5.918878 -87.964123 -1.354901 -13.742503 88.298716 8.030230 -7.584320 14.475096 0.000000 -0.000000 0.000000 -0.413786 -0.570460 32.142297 -2.466568 1.675741 -19.132872 0.251397 0.332916 -2.662506 -11.724925 -0.368939 25.871323 7.958828 10.954601 -11.403569 -6.910631 4.119647 11.769922 -34.339121 13.473349 16.952302 -79.073777 -63.750795 96.871790 60.853758 -7.618539 -19.058971 3.173515 0.470875 19.067276 35.653225 -8.283899 13.278371 90.350412 64.692099 111.137883 -57.449407 12.623523 -18.073584 
1.108065 0.722636 0.724684 84.645947 -0.381572 92.815931 13.000726 4.144803 -79.289223 -3.800304 17.393506 76.035280 7.064566 7.585201 -3.227710 0.000000 -0.000000 0.000000 -10.796533 -5.077829 -87.361383 -1.816369 -13.027604 85.538677 8.381902 -7.823756 15.174734 0.000000 -0.000000 0.000000 -0.243833 -0.629832 32.801857 -2.513104 1.444842 -19.186526 0.182393 0.183551 -3.320646 -10.997322 -0.086177 23.451790 7.631824 10.140104 -10.536812 -7.172524 3.213514 11.806462 -36.399028 12.196336 16.435421 -69.646682 -62.734429 88.441913 60.091599 -8.608150 -18.135217 2.887595 0.873817 19.300340 37.538145 -6.875294 13.015030 83.009537 64.456500 105.223229 -58.081805 12.216649 -17.514541 
1.105358 0.722874 0.733496 85.017192 -0.463205 94.122175 12.576581 3.923826 -79.237740 -3.661437 17.248270 73.522117 7.522811 7.155819 -2.340391 0.000000 -0.000000 0.000000 -10.717243 -4.779670 -87.521604 -2.137859 -12.616792 83.703104 8.035271 -8.057761 15.805098 0.000000 -0.000000 0.000000 0.251144 -1.206353 32.932735 -3.302439 1.379045 -20.560295 -0.054897 0.582015 -2.875157 -12.203979 -1.161763 22.761267 9.121197 11.470950 -10.489928 -6.443464 1.915692 11.219108 -38.045204 11.820485 16.885435 -63.686000 -61.997187 81.972764 62.251432 -9.467940 -17.390138 0.700655 2.952850 19.779713 43.499892 -7.413053 13.177366 73.675674 65.967575 95.384753 -58.476682 15.078014 -15.711014 
1.103058 0.722606 0.739489 85.332269 -0.470043 95.205996 12.454235 3.862130 -79.315684 -3.917915 17.292488 71.518769 7.048942 7.338362 -1.789249 0.000000 -0.000000 0.000000 -10.883995 -4.619264 -87.652961 -2.084637 -12.717565 82.280599 8.205898 -8.706733 15.630138 0.000000 -0.000000 0.000000 0.098347 -1.140268 32.581967 -2.675697 1.183166 -21.021391 0.257367 0.047930 -3.100301 -11.412309 -0.293718 22.108586 7.820078 10.832680 -10.352165 -7.473549 2.709821 11.572092 -38.085437 10.866892 16.544590 -60.913116 -60.992866 80.014024 61.171175 -9.127507 -17.477142 2.646398 1.371287 19.178020 39.772739 -5.810090 13.668412 74.816640 64.494138 97.747388 -58.479412 12.807726 -16.632549 
